<?xml version="1.0" encoding="UTF-8"?>
<!-- Generator: Adobe Illustrator 19.1.0, SVG Export Plug-In . SVG Version: 6.00 Build 0)  -->
<svg xmlns="http://www.w3.org/2000/svg" xmlns:xlink="http://www.w3.org/1999/xlink" xmlns:dc="http://purl.org/dc/elements/1.1/" xmlns:cc="http://creativecommons.org/ns#" xmlns:rdf="http://www.w3.org/1999/02/22-rdf-syntax-ns#" version="1.1" id="DESIGNS" x="0px" y="0px" width="32px" height="32px" viewBox="0 0 32 32" style="enable-background:new 0 0 32 32;" xml:space="preserve">
<title property="dc:title">to merge</title><desc property="dc:description">An icon for "merge" from the Avocado series on to [icon]. Downloaded from http://www.toicon.com/icons/avocado_merge by 24.193.44.155 on 2020-08-06. Licensed CC-BY, see http://toicon.com/license/ for details.</desc>
<g>
	<g>
		<path class="avocado_achttien" d="M25.425,12.111c1.983-1.983,3.075-4.621,3.075-7.425V0.5h-5v4.187    c0,1.469-0.572,2.85-1.611,3.889l-5.313,5.313c-0.191,0.191-0.38,0.398-0.578,0.637c1.509,1.773,2.356,4.125,2.491,6.288    c0.241-1.331,0.703-2.469,1.623-3.389L25.425,12.111z" style="fill: #D1712A;"/>
	</g>
	<path class="avocado_zeventien" d="M17.017,13.447c0,0-0.822,0.84-1.02,1.078c1.509,1.773,2.491,4.435,2.491,6.288   c0.256-1.227,0.473-1.907,1.045-2.701C19.059,16.396,18.21,14.811,17.017,13.447z" style="fill: #CC4121;"/>
	<g>
		<path class="avocado_negentien" d="M20.793,26.5H18.5v-5.187c-0.025-2.698-1.092-5.441-3.074-7.424L10.11,8.575    C9.072,7.536,8.5,6.155,8.5,4.687V0.5h-5v4.187c0,2.804,1.092,5.441,3.074,7.424l5.315,5.314c1.038,1.039,1.61,2.42,1.61,3.889    V26.5h-2.293L16,31.293L20.793,26.5z" style="fill: #E0A838;"/>
	</g>
	<path class="avocado_een" d="M23,0v4.687c0,1.335-0.521,2.591-1.465,3.536l-5.313,5.313   c-0.078,0.078-0.149,0.162-0.221,0.244c-0.075-0.08-0.143-0.166-0.221-0.244l-5.315-5.314C9.521,7.278,9,6.022,9,4.687V0H3v4.687   c0,2.938,1.144,5.7,3.221,7.778l5.315,5.314c0.943,0.944,1.464,2.2,1.464,3.535V26h-3l6,6l6-6h-3v-4.687   c0-1.335,0.521-2.591,1.465-3.536l5.313-5.313C27.856,10.386,29,7.624,29,4.687V0H23z M19.586,27L16,30.586L12.414,27H14v-5.687   c0-1.602-0.624-3.109-1.757-4.242l-5.315-5.314C5.04,9.868,4,7.357,4,4.687V1h4v3.687c0,1.602,0.624,3.109,1.757,4.242l5.315,5.314   C16.96,16.132,18,18.643,18,21.313V27H19.586z M28,4.687c0,2.671-1.04,5.182-2.929,7.071l-5.314,5.313   c-0.458,0.458-0.819,0.983-1.103,1.544c-0.372-1.479-1.045-2.862-1.997-4.075c0.088-0.101,0.175-0.203,0.27-0.298l5.314-5.313   C23.376,7.796,24,6.289,24,4.687V1h4V4.687z" style="fill: #231F20;"/>
</g>
<metadata><work rdf:about=""><format>image/svg+xml</format><type rdf:resource="http://purl.org/dc/dcmitype/StillImage"/><license rdf:resource="http://creativecommons.org/licenses/by/4.0/"/><attributionname>Shannon E Thomas</attributionname><attributionurl>http://www.toicon.com/icons/avocado_merge</attributionurl></work></metadata></svg>
