<svg xmlns="http://www.w3.org/2000/svg" viewBox="0 0 48 48"><path fill="#ffa726" d="M22 10.5c0 2.485-2.015 4.5-4.5 4.5S13 12.985 13 10.5 15.015 6 17.5 6 22 8.015 22 10.5M35 10.5c0 2.485-2.015 4.5-4.5 4.5S26 12.985 26 10.5 28.015 6 30.5 6 35 8.015 35 10.5"/><path fill="#455a64" d="M16,30c0,0-2-5-8-5s-8,5-8,5v2h16V30z"/><path fill="#ffb74d" d="M13,18c0,2.761-2.239,5-5,5s-5-2.239-5-5s2.239-5,5-5S13,15.239,13,18"/><path fill="#455a64" d="M48,30c0,0-2-5-8-5s-8,5-8,5v2h16V30z"/><path fill="#ffb74d" d="M45 18c0 2.761-2.239 5-5 5s-5-2.239-5-5 2.239-5 5-5S45 15.239 45 18M30 24c0 3.313-2.687 6-6 6s-6-2.687-6-6 2.687-6 6-6S30 20.687 30 24"/><path fill="#607d8b" d="M35,39c0,0-3.025-7-11-7s-11,7-11,7v3h22V39z"/></svg>