<?xml version="1.0" encoding="UTF-8"?>
<!-- Generator: Adobe Illustrator 19.1.0, SVG Export Plug-In . SVG Version: 6.00 Build 0)  -->
<svg xmlns="http://www.w3.org/2000/svg" xmlns:xlink="http://www.w3.org/1999/xlink" xmlns:dc="http://purl.org/dc/elements/1.1/" xmlns:cc="http://creativecommons.org/ns#" xmlns:rdf="http://www.w3.org/1999/02/22-rdf-syntax-ns#" version="1.1" id="DESIGNS" x="0px" y="0px" width="32px" height="32px" viewBox="0 0 32 32" style="enable-background:new 0 0 32 32;" xml:space="preserve">
<title property="dc:title">to schedule</title><desc property="dc:description">An icon for "schedule" from the Avocado series on to [icon]. Downloaded from http://www.toicon.com/icons/avocado_schedule by 81.245.32.61 on 2017-10-29. Licensed CC-BY, see http://toicon.com/license/ for details.</desc>
<g>
	<polygon class="avocado_zes" points="2.5,29.5 2.5,8.5 4.5,8.5 4.5,6.5 29.5,6.5 29.5,27.5 27.5,27.5 27.5,29.5  " style="fill: #FFFAEE;"/>
	<polygon class="avocado_zeventien" points="2.5,15.5 2.5,8.5 4.5,8.5 4.5,6.5 29.5,6.5 29.5,13.5 4.5,13.5 4.5,15.5  " style="fill: #CC4121;"/>
	<g>
		<path class="avocado_acht" d="M24,9.5c-0.827,0-1.5-0.673-1.5-1.5V4c0-0.827,0.673-1.5,1.5-1.5s1.5,0.673,1.5,1.5v4    C25.5,8.827,24.827,9.5,24,9.5z M10,9.5C9.173,9.5,8.5,8.827,8.5,8V4c0-0.827,0.673-1.5,1.5-1.5s1.5,0.673,1.5,1.5v4    C11.5,8.827,10.827,9.5,10,9.5z" style="fill: #A3AEB5;"/>
	</g>
	<path class="avocado_een" d="M13,19v-2h3v7h-2v-5L13,19z M19,24h2v-7h-3v2l1,0V24z M30,6v22h-2v2H2V8h2V6h4V4   c0-1.105,0.895-2,2-2c1.105,0,2,0.895,2,2v2h10V4c0-1.105,0.895-2,2-2c1.105,0,2,0.895,2,2v2H30z M23,8c0,0.551,0.449,1,1,1   s1-0.449,1-1V4c0-0.551-0.449-1-1-1s-1,0.449-1,1V8z M9,8c0,0.551,0.449,1,1,1s1-0.449,1-1V4c0-0.551-0.449-1-1-1S9,3.449,9,4V8z    M3,15h1V9H3V15z M27,28H4V16H3v13h24V28z M29,14H5v13h24V14z M29,13V7h-3v1c0,1.105-0.895,2-2,2c-1.105,0-2-0.895-2-2V7H12v1   c0,1.105-0.895,2-2,2c-1.105,0-2-0.895-2-2V7H5v6H29z" style="fill: #231F20;"/>
</g>
<metadata><work rdf:about=""><format>image/svg+xml</format><type rdf:resource="http://purl.org/dc/dcmitype/StillImage"/><license rdf:resource="http://creativecommons.org/licenses/by/4.0/"/><attributionname>Shannon E Thomas</attributionname><attributionurl>http://www.toicon.com/icons/avocado_schedule</attributionurl></work></metadata></svg>
