<?xml version="1.0" encoding="UTF-8"?>
<!-- Generator: Adobe Illustrator 19.1.0, SVG Export Plug-In . SVG Version: 6.00 Build 0)  -->
<svg xmlns="http://www.w3.org/2000/svg" xmlns:xlink="http://www.w3.org/1999/xlink" xmlns:dc="http://purl.org/dc/elements/1.1/" xmlns:cc="http://creativecommons.org/ns#" xmlns:rdf="http://www.w3.org/1999/02/22-rdf-syntax-ns#" version="1.1" id="DESIGNS" x="0px" y="0px" width="32px" height="32px" viewBox="0 0 32 32" style="enable-background:new 0 0 32 32;" xml:space="preserve">
<title property="dc:title">to calculate</title><desc property="dc:description">An icon for "calculate" from the Avocado series on to [icon]. Downloaded from http://www.toicon.com/icons/avocado_calculate by 24.193.44.155 on 2020-08-06. Licensed CC-BY, see http://toicon.com/license/ for details.</desc>
<g>
	<g>
		<rect x="5.5" y="2.5" class="avocado_acht" width="21" height="27" style="fill: #A3AEB5;"/>
	</g>
	<g>
		<rect x="20" y="23" class="avocado_achttien" width="4" height="4" style="fill: #D1712A;"/>
	</g>
	<path class="avocado_zeven" d="M8,11h4v4H8V11z M14,27h4v-4h-4V27z M8,27h4v-4H8V27z M8,21h4v-4H8V21z M14,15h4v-4h-4V15z    M14,21h4v-4h-4V21z M26.5,2.5v6h-21v-6H26.5z M9,4H8v3h1V4z M11,4h-1v3h1V4z M13,4h-1v3h1V4z M20,21h4v-4h-4V21z M20,15h4v-4h-4   V15z" style="fill: #788287;"/>
	<path class="avocado_een" d="M5,2v28h22V2H5z M26,29H6V9h20V29z M26,8H6V3h20V8z" style="fill: #231F20;"/>
</g>
<metadata><work rdf:about=""><format>image/svg+xml</format><type rdf:resource="http://purl.org/dc/dcmitype/StillImage"/><license rdf:resource="http://creativecommons.org/licenses/by/4.0/"/><attributionname>Shannon E Thomas</attributionname><attributionurl>http://www.toicon.com/icons/avocado_calculate</attributionurl></work></metadata></svg>
